HIERARCHY
ROOT pelvis
{
  OFFSET 0 100 0
  CHANNELS 6 Xposition Yposition Zposition Zrotation Xrotation Yrotation
  JOINT pelvis_right_femur
  {
    OFFSET -10.78128 -3.44521 -0.5502486
    CHANNELS 3 Zrotation Xrotation Yrotation
    JOINT right_femur_tibia
    {
      OFFSET -0.8047443 -44.0398 -0.1307829
      CHANNELS 3 Zrotation Xrotation Yrotation
      JOINT right_tibia_foot
      {
        OFFSET 3.006224 -47.83518 -5
        CHANNELS 3 Zrotation Xrotation Yrotation
        End Site
        {
          OFFSET 0 -5 15
        }
      }
    }
  }
  JOINT pelvis_left_femur
  {
    OFFSET 10.78128 -3.44521 -0.5502486
    CHANNELS 3 Zrotation Xrotation Yrotation
    JOINT left_femur_tibia
    {
      OFFSET 0.8047443 -44.0398 -0.1307829
      CHANNELS 3 Zrotation Xrotation Yrotation
      JOINT left_tibia_foot
      {
        OFFSET -4.370144 -48.10324 -4.275266
        CHANNELS 3 Zrotation Xrotation Yrotation
        End Site
        {
          OFFSET 0 -5 15
        }
      }
    }
  }
  JOINT pelvis_spine1
  {
    OFFSET 0 6.468898 -3.129235
    CHANNELS 3 Zrotation Xrotation Yrotation
    JOINT spine1
    {
      OFFSET 0 23.15396 4.99043
      CHANNELS 3 Zrotation Xrotation Yrotation
      JOINT spine2
      {
        OFFSET 0 20.79997 -5.064912
        CHANNELS 3 Zrotation Xrotation Yrotation
        JOINT neck
        {
          OFFSET 0 14.38658 9.616178
          CHANNELS 3 Zrotation Xrotation Yrotation
          End Site
          {
            OFFSET 0 20 0
          }
        }
      }
      JOINT right_manubrium
      {
        OFFSET -5.722621 16.35077 3.967754
        CHANNELS 3 Zrotation Xrotation Yrotation
        JOINT right_clavicle
        {
          OFFSET -13.16364 1.694482 -4.693211
          CHANNELS 3 Zrotation Xrotation Yrotation
          JOINT right_humerus
          {
            OFFSET -28.5034 -0.3100689 -2.792744
            CHANNELS 3 Zrotation Xrotation Yrotation
            JOINT right_radius
            {
              OFFSET -25.15693 0.02248979 -1.271978
              CHANNELS 3 Zrotation Xrotation Yrotation
              End Site
              {
                OFFSET -15 0 0
              }
            }
          }
        }
      }
      JOINT left_manubrium
      {
        OFFSET 5.722621 16.35077 3.967754
        CHANNELS 3 Zrotation Xrotation Yrotation
        JOINT left_clavicle
        {
          OFFSET 13.16364 1.694482 -4.693211
          CHANNELS 3 Zrotation Xrotation Yrotation
          JOINT left_humerus
          {
            OFFSET 29.39168 -1.063119 -2.237045
            CHANNELS 3 Zrotation Xrotation Yrotation
            JOINT left_radius
            {
              OFFSET 24.59957 -0.9528479 0.9047498
              CHANNELS 3 Zrotation Xrotation Yrotation
              End Site
              {
                OFFSET 15 -0 -0
              }
            }
          }
        }
      }
    }
  }
}
MOTION
Frames: 13
Frame Time: 0.0416666666667
-1427.364 105.2867 -272.4966 6.564002 9.588098 144.9291 7.159186 -4.046196 -1.021786 -0 11.07423 -0 -13.50321 1.754471 -4.051913 -1.545693 -0.763776 -4.538957 -0 55.0355 -0 3.882621 -5.794714 16.53298 1.295249 -2.445285 5.963762 0.1516036 16.33229 -7.397457 2.182365 22.43325 2.717747 1.597834 -19.9799 5.072963 -6.839269 -23.92665 11.85536 98.95952 13.85152 -21.00921 -0 0 11.79344 -22.41649 9.999556 7.695724 2.829663 -26.66436 -10.65427 -86.99841 11.54849 19.69679 0 0 -22.24338 11.87265 15.39637 -2.820437
-1423.936 106.1518 -277.0484 6.994189 9.902575 143.8897 7.324588 -1.17146 -0.5708395 -0 10.98091 -0 -13.36074 0.7055224 -4.226079 -0.8311291 -3.425367 -4.260703 -0 53.22677 -0 4.204666 -5.168591 17.03039 1.261421 -2.261646 6.288582 0.05768512 16.55722 -7.196979 2.258349 22.25753 2.300454 1.299945 -19.86195 4.922804 -7.058874 -25.01552 11.87627 98.56304 13.71834 -19.69516 -0 0 13.70006 -22.33256 10.48604 8.087663 2.489661 -26.08619 -10.70549 -87.81889 11.58997 21.85437 0 0 -20.49903 11.25571 15.54732 -2.122951
-1420.592 106.7879 -281.4771 7.411127 10.11532 142.8345 7.458138 1.770686 -0.2657142 -0 10.69641 -0 -13.19039 -0.5182834 -4.296918 -0.03686052 -5.993273 -3.894147 -0 49.94479 -0 4.428732 -4.652758 17.42194 1.21447 -2.09354 6.569482 0.01455956 16.68309 -7.017554 2.249221 22.04228 1.914713 1.014501 -19.72235 4.708609 -7.242596 -26.19226 11.87537 98.02479 13.54299 -18.21747 -0 0 15.86001 -22.18507 10.8724 8.488598 2.238949 -25.50264 -10.68726 -88.75375 11.42678 24.13625 0 0 -18.41271 10.71674 15.64639 -1.651308
-1417.329 107.1421 -285.8379 7.79122 10.16528 141.7786 7.565346 4.744487 -0.07060063 -0 10.32498 -0 -13.01327 -1.953671 -4.263058 0.8393168 -8.441512 -3.451233 -0 45.30546 -0 4.519789 -4.162858 17.65567 1.185771 -1.977081 6.815508 0.02454045 16.70465 -6.866398 2.147973 21.77874 1.581617 0.7532487 -19.5578 4.436864 -7.342793 -27.43261 11.85478 97.3297 13.37264 -16.63139 -0 0 18.23125 -21.9761 11.16562 8.925863 2.064199 -24.92508 -10.57514 -89.79386 11.07679 26.55714 0 0 -16.03431 10.22112 15.68352 -1.295299
-1414.14 107.1893 -290.1953 8.088915 9.983611 140.7433 7.632021 7.679853 0.07544079 -0 10.02343 -0 -12.82772 -3.647827 -4.121938 1.781539 -10.76847 -2.962535 -0 39.50016 -0 4.455892 -3.617476 17.68731 1.198623 -1.944843 7.041424 0.08255453 16.6171 -6.743535 1.954349 21.4595 1.33157 0.5299479 -19.36338 4.130291 -7.27998 -28.68824 11.82596 96.43532 13.31692 -15.00335 -0 0 20.74026 -21.72215 11.40769 9.448129 1.942584 -24.35654 -10.33643 -90.90721 10.60724 29.10211 0 0 -13.49861 9.707134 15.63598 -0.8810529
-1411.01 106.9378 -294.6189 8.232579 9.503139 139.7613 7.614669 10.45334 0.254685 -0 10.00521 -0 -12.59379 -5.652184 -3.867912 2.743942 -12.98523 -2.47854 -0 32.82098 -0 4.230791 -2.959615 17.48557 1.258472 -2.02161 7.264603 0.1744137 16.41253 -6.641394 1.676685 21.08259 1.2068 0.362423 -19.12863 3.830298 -6.93901 -29.86993 11.81158 95.26339 13.55617 -13.41031 -0 0 23.26332 -21.46405 11.67997 10.11961 1.845009 -23.79179 -9.931372 -92.02505 10.14853 31.69164 0 0 -11.05178 9.089852 15.46489 -0.1852585
-1407.921 106.4358 -299.1785 8.12831 8.679714 138.8773 7.436184 12.86799 0.5577613 -0 10.53361 -0 -12.21995 -7.987897 -3.489415 3.634613 -15.08857 -2.068769 -0 25.72369 -0 3.85948 -2.184974 17.04503 1.339855 -2.2176 7.500295 0.2763435 16.07963 -6.54755 1.334071 20.65793 1.261431 0.2785908 -18.83341 3.593838 -6.177089 -30.82884 11.84441 93.70647 14.3354 -11.94062 -0 0 25.60264 -21.27746 12.09229 10.99698 1.74403 -23.2231 -9.323258 -93.02601 9.895502 34.13478 0 0 -9.060837 8.285848 15.11109 1.009594
-1404.845 105.7759 -303.939 7.67882 7.525723 138.1419 6.999815 14.65777 1.05174 -0 11.87098 -0 -11.56741 -10.56731 -2.96362 4.304655 -17.03298 -1.815193 -0 18.9168 -0 3.380531 -1.372801 16.40874 1.373553 -2.516787 7.755962 0.3576001 15.60991 -6.450782 0.9571685 20.21479 1.555245 0.3265979 -18.45104 3.478993 -4.857581 -31.35058 11.95772 91.66226 15.93129 -10.68871 -0 0 27.47624 -21.27574 12.74359 12.08556 1.630901 -22.65193 -8.498596 -93.73358 10.07581 36.09452 0 0 -7.95963 7.265958 14.49962 2.802381
-1401.746 105.0877 -308.9524 6.825904 6.145433 137.5921 6.237006 15.58061 1.717365 -0 14.12412 -0 -10.50487 -13.09359 -2.252456 4.572132 -18.74129 -1.793884 -0 13.36812 -0 2.838034 -0.6981918 15.69876 1.24987 -2.85975 8.024875 0.386602 15.00711 -6.342741 0.5854817 19.80885 2.135647 0.5816037 -17.97002 3.518033 -2.929247 -31.19431 12.15903 89.10229 18.56632 -9.71944 -0 0 28.56338 -21.58666 13.64405 13.28954 1.544567 -22.0965 -7.490556 -93.96398 10.85498 37.12735 0 0 -8.051579 6.122569 13.58062 5.021508
-1398.585 104.4986 -314.2421 5.616569 4.74338 137.2232 5.176543 15.65582 2.37677 -0 16.97905 -0 -9.043453 -15.05236 -1.320662 4.317052 -20.19269 -2.048474 -0 10.00967 -0 2.228513 -0.3824827 15.14058 0.8677488 -3.130653 8.278048 0.3353026 14.28456 -6.196824 0.2635957 19.52933 3.005285 1.126584 -17.43399 3.697273 -0.5473355 -30.2077 12.38928 86.14924 22.24062 -8.979249 -0 0 28.64151 -22.28863 14.62229 14.40728 1.596256 -21.57059 -6.385209 -93.66304 12.19203 36.87568 0 0 -9.156399 5.087615 12.42941 7.155425
-1395.326 104.0647 -319.7822 4.257433 3.575958 136.9733 3.965765 15.38968 2.716577 -0 19.58501 -0 -7.471582 -15.94116 -0.1983994 3.602787 -21.50768 -2.583972 -0 9.111195 -0 1.456719 -0.5742606 15.03527 0.2286053 -3.177947 8.457052 0.1774413 13.44173 -5.929124 0.04531226 19.49968 4.084436 1.979458 -16.9632 3.983253 1.85097 -28.47512 12.50723 83.09645 26.51772 -8.218387 -0 0 27.74722 -23.33329 15.31612 15.22627 1.936126 -21.02714 -5.291613 -93.06319 13.79856 35.36054 0 0 -10.40135 4.418123 11.33041 8.56536
-1391.946 103.7332 -325.4902 3.076132 2.861166 136.748 2.801734 15.55415 2.498236 -0 21.04316 -0 -6.249088 -15.61413 0.9529124 2.652497 -22.80537 -3.391286 -0 9.944592 -0 0.4086472 -1.278848 15.61681 -0.5239008 -2.895385 8.483781 -0.101709 12.46032 -5.419313 -0.0001748812 19.83914 5.195174 2.996481 -16.70663 4.385536 3.666547 -26.34179 12.35519 80.35398 30.46984 -7.128602 -0 0 26.17479 -24.52291 15.35281 15.65956 2.629096 -20.34197 -4.295774 -92.61295 15.36484 33.05509 0 0 -10.67521 4.198598 10.66084 8.951431
-1388.434 103.3946 -331.2547 2.367824 2.711267 136.476 1.843072 16.53466 1.784817 -0 21.26233 -0 -5.649211 -14.30901 1.86304 1.64651 -23.89682 -4.446153 -0 11.36212 -0 -0.8866001 -2.430197 16.8687 -1.205989 -2.310796 8.299487 -0.4748237 11.35942 -4.628444 0.1921049 20.57793 6.101076 3.880558 -16.75222 4.957212 4.432434 -24.23542 11.86895 78.41385 33.00997 -5.715323 -0 0 24.27984 -25.56887 14.5937 15.76056 3.552033 -19.40969 -3.448282 -92.62364 16.82543 30.55338 0 0 -9.505863 4.265019 10.59869 8.606604
